<?xml version="1.0" standalone="no"?><!DOCTYPE svg PUBLIC "-//W3C//DTD SVG 1.1//EN" "http://www.w3.org/Graphics/SVG/1.1/DTD/svg11.dtd"><svg class="icon" width="200px" height="200.00px" viewBox="0 0 1024 1024" version="1.1" xmlns="http://www.w3.org/2000/svg"><path fill="#515151" d="M215.04 343.04c-10.24 0-20.48-5.12-23.04-15.36l-51.2-130.56-99.84-51.2c-12.8-7.68-17.92-23.04-10.24-35.84s20.48-17.92 33.28-10.24l107.52 56.32c5.12 2.56 10.24 7.68 12.8 12.8l56.32 140.8c5.12 12.8 0 28.16-15.36 33.28h-10.24zM739.84 798.72H256c-7.68 0-15.36-5.12-20.48-10.24-5.12-7.68-5.12-15.36-2.56-23.04l66.56-171.52 48.64 17.92-53.76 135.68h445.44v51.2z"  /><path fill="#515151" d="M704 645.12H304.64L171.52 276.48h665.6c17.92 0 35.84 5.12 48.64 17.92s23.04 28.16 23.04 48.64c0 7.68 0 15.36-2.56 25.6l-2.56 5.12-117.76 230.4c-25.6 35.84-51.2 40.96-81.92 40.96z m-363.52-51.2H691.2c33.28 0 38.4 0 48.64-17.92l115.2-225.28v-5.12c0-5.12-2.56-10.24-5.12-12.8s-7.68-5.12-12.8-5.12H243.2l97.28 266.24zM709.12 995.84c-43.52 0-79.36-35.84-79.36-79.36s35.84-79.36 79.36-79.36 79.36 35.84 79.36 79.36-35.84 79.36-79.36 79.36z m0-107.52c-15.36 0-28.16 12.8-28.16 28.16s12.8 28.16 28.16 28.16 28.16-12.8 28.16-28.16-12.8-28.16-28.16-28.16zM230.4 995.84c-2.56 0-2.56 0 0 0h-5.12c-20.48 0-38.4-10.24-51.2-23.04-15.36-15.36-23.04-35.84-23.04-56.32 0-43.52 35.84-79.36 79.36-79.36 43.52 0 79.36 35.84 79.36 81.92-2.56 43.52-35.84 76.8-79.36 76.8z m-2.56-107.52c-15.36 0-28.16 12.8-28.16 28.16 0 7.68 2.56 15.36 7.68 20.48 5.12 5.12 12.8 7.68 20.48 7.68H230.4c15.36 0 28.16-12.8 28.16-28.16 0-15.36-12.8-28.16-30.72-28.16 2.56 0 2.56 0 0 0z"  /></svg>