<?xml version="1.0" standalone="no"?><!DOCTYPE svg PUBLIC "-//W3C//DTD SVG 1.1//EN" "http://www.w3.org/Graphics/SVG/1.1/DTD/svg11.dtd"><svg class="icon" width="200px" height="200.00px" viewBox="0 0 1024 1024" version="1.1" xmlns="http://www.w3.org/2000/svg"><path fill="#515151" d="M511.868068 1013.974525C234.702266 1013.974525 10.024442 789.296702 10.024442 512.130899S234.702266 10.287273 511.868068 10.287273s501.843626 224.677823 501.843626 501.843626-224.677823 501.843626-501.843626 501.843626z m0-54.753503c246.912036 0 447.090123-200.188111 447.090123-447.090123s-200.178087-447.090123-447.090123-447.090123-447.090123 200.178087-447.090122 447.090123 200.178087 447.090123 447.090122 447.090123z"  /><path fill="#515151" d="M511.868068 1023.998967A511.998386 511.998386 0 0 1 312.622255 40.490917a512.008411 512.008411 0 0 1 398.491627 943.300013 508.69032 508.69032 0 0 1-199.245814 40.208037z m0-1003.687252a491.949502 491.949502 0 0 0-191.466846 944.994143 491.962533 491.962533 0 0 0 382.933693-906.349918 488.751705 488.751705 0 0 0-191.466847-38.644225z m0 948.933749a457.244883 457.244883 0 0 1-177.933849-878.311553 457.234858 457.234858 0 0 1 355.867699 842.383952 454.217501 454.217501 0 0 1-177.93385 35.927601z m0-894.180245a437.195998 437.195998 0 0 0-170.114784 839.797646 437.185974 437.185974 0 0 0 340.229569-805.463932 434.28891 434.28891 0 0 0-170.114785-34.333714z"  /><path fill="#515151" d="M327.418332 375.156921l335.437885 335.528105a27.376752 27.376752 0 1 0 38.734445-38.684322L366.09263 336.462574a27.376752 27.376752 0 0 0-38.674298 38.694347z"  /><path fill="#515151" d="M682.554246 729.069853a37.090436 37.090436 0 0 1-26.845456-11.357693L320.280929 382.244201l1.744253-1.904644-1.854522 1.784351a37.401194 37.401194 0 0 1 52.898981-52.858884l0.120294 0.110269L708.62782 664.853276a37.401194 37.401194 0 0 1-26.06355 64.216577z m-347.988487-360.87992l335.508056 335.528106a17.352309 17.352309 0 1 0 24.549859-24.519786l-0.120293-0.110269L359.07552 343.620026a17.352309 17.352309 0 0 0-24.499737 24.559883z"  /><path fill="#515151" d="M671.727848 336.462574L336.199743 671.950581a27.376752 27.376752 0 1 0 38.674298 38.664274l335.548154-335.457934a27.376752 27.376752 0 0 0-38.704371-38.674298z"  /><path fill="#515151" d="M354.865254 729.380611a37.401194 37.401194 0 0 1-25.632498-64.627579l335.407812-335.377739 4.58117 4.430804-4.350608-4.661366a37.401194 37.401194 0 0 1 52.868908 52.838835l-0.240587 0.250611-335.417836 335.397788A37.541536 37.541536 0 0 1 354.865254 729.380611z m323.789484-385.660341L343.16673 679.16818l-0.130317 0.120293a17.352309 17.352309 0 1 0 24.479687 24.52981l0.240587-0.250611 335.437885-335.367714A17.352309 17.352309 0 0 0 678.654738 343.72027z"  /></svg>