<?xml version="1.0" standalone="no"?><!DOCTYPE svg PUBLIC "-//W3C//DTD SVG 1.1//EN" "http://www.w3.org/Graphics/SVG/1.1/DTD/svg11.dtd"><svg class="icon" width="200px" height="200.00px" viewBox="0 0 1024 1024" version="1.1" xmlns="http://www.w3.org/2000/svg"><path fill="#515151" d="M360.101 554.048c19.259 38.214 47.687 69.354 82.485 91.317 48.741 56.338 194.494 57.891 284.905-32.208l163.81-163.151c41.652-41.402 67.431-98.731 67.431-162.082 0-63.371-25.795-120.716-67.459-162.11-41.663-41.535-99.134-67.207-162.599-67.207-63.447 0-120.902 25.657-162.555 67.163l-78.482 75.335 40.311 42.020 78.915-75.73c31.165-31.179 74.225-50.463 121.79-50.463 47.41 0 90.347 19.159 121.485 50.159 31.061 30.846 50.292 73.584 50.292 120.813 0 47.228-19.23 89.966-50.288 120.81l-163.743 163.161c-67.498 67.264-176.51 66.099-242.843 0-21.434-21.663-37.075-49.098-44.384-79.765l-39.075 61.938zM501.62 753.393l-84.274 82.643c-31.141 31.072-74.125 50.285-121.596 50.285-47.375 0-90.281-19.135-121.409-50.098-31.026-30.651-50.247-73.205-50.247-120.252 0-0.197 0-0.395 0.001-0.591 0-45.68 17.787-88.515 50.214-120.788l164.898-164.277c67.342-67.108 176.316-66.254 242.843 0 12.466 12.428 22.914 27.185 31.457 44.039l52.002-26.292c-19.303-38.215-47.772-69.348-82.606-91.303-48.855-56.468-194.607-57.595-284.785 32.273l-164.937 164.277c-41.593 41.238-67.343 98.4-67.343 161.574 0 0.186 0 0.371 0.001 0.558 0 61.178 23.962 118.849 67.38 162.073 41.648 41.477 99.093 67.121 162.529 67.121 63.436 0 120.881-25.644 162.537-67.13l84.111-82.519-40.778-41.594z" /></svg>