<?xml version="1.0" standalone="no"?><!DOCTYPE svg PUBLIC "-//W3C//DTD SVG 1.1//EN" "http://www.w3.org/Graphics/SVG/1.1/DTD/svg11.dtd"><svg class="icon" width="200px" height="200.00px" viewBox="0 0 1024 1024" version="1.1" xmlns="http://www.w3.org/2000/svg"><path fill="#515151" d="M388.096 370.24l-20.928 15.136 5.632-14.24 15.296-0.896zM220.48 891.04v-0.256 0.256z m459.264-517.344a485447.488 485447.488 0 0 1 220.192 12.16l8.768 0.48c1.696 0 1.696 0 8.256 1.088 21.248 6.016 35.04 25.664 35.04 47.808 0 11.424-3.936 22.304-11.008 31.008l-2.944 3.04-3.072 2.656-4.256 3.648-190.336 156.32 59.968 238.976a49.504 49.504 0 0 1-44.928 70.336 49.6 49.6 0 0 1-31.392-11.136l-211.328-130.56L303.84 928a49.632 49.632 0 0 1-33.792 13.216c-27.328 0-49.6-22.08-49.6-49.376 0-1.024-0.576-5.376-0.576-5.376l62.912-252.8-196.32-163.36-4.288-4.672c-24.608-35.04-0.512-78.944 34.784-79.776l255.84-14.72 91.744-231.2a49.376 49.376 0 0 1 47.552-35.936c18.432 0 34.368 10.016 44.736 28.384 0.832 1.76 1.568 3.584 1.696 4.096l93.568 235.712 27.648 1.504z m242.592 77.44l-18.624-15.136c0.064-2.336-0.224-2.56-0.768-2.688l2.688 0.544c-3.52 0.192-4.416 0.128-8.416-0.096l-30.816-1.728a167560.48 167560.48 0 0 0-189.28-10.4l-42.976-2.368-15.328-0.832-5.664-14.272-99.52-250.752c-2.08-1.408-2.56-1.152-2.368-1.472a15.936 15.936 0 0 0-1.28 3.296l-103.84 262.08-15.296 0.864-271.904 15.648c0.928 0 0.768 0.704 1.408 2.24l216.256 179.936-68.16 273.984c0 2.56 0.64 3.232 1.6 3.232 0.544 0 6.304-4.672 6.304-4.672l236.416-145.376 238.016 147.008 3.488 2.624c2.08 0.416 2.752-0.256 2.752-0.96 0-0.224-2.56-6.624-2.56-6.624L686.4 614.08l11.744-9.632 201.632-165.6 3.84-3.264 1.984-1.728c0.256-0.224 16.704 17.28 16.704 17.28z" /></svg>