<?xml version="1.0" standalone="no"?><!DOCTYPE svg PUBLIC "-//W3C//DTD SVG 1.1//EN" "http://www.w3.org/Graphics/SVG/1.1/DTD/svg11.dtd"><svg class="icon" width="200px" height="200.00px" viewBox="0 0 1024 1024" version="1.1" xmlns="http://www.w3.org/2000/svg"><path fill="#515151" d="M497.888 595.712l197.28000001-205.44c10.432-8.864 25.968-7.504 34.68799999 3.024 8.736 10.528 7.36 26.24-3.072 35.08799999l-197.28 205.42400001c-10.432 8.864-25.968 7.504-34.688-3.008S487.44 604.56 497.888 595.712z"  /><path fill="#515151" d="M328.32 390.256l197.28 205.44c10.432 8.864 11.808 24.56 3.088 35.088-8.736 10.528-24.272 11.872-34.688 3.024l-197.28-205.44c-10.432-8.848-11.808-24.56-3.072-35.088C302.33599999 382.752 317.872 381.392 328.32 390.256z"  /></svg>