<?xml version="1.0" standalone="no"?><!DOCTYPE svg PUBLIC "-//W3C//DTD SVG 1.1//EN" "http://www.w3.org/Graphics/SVG/1.1/DTD/svg11.dtd"><svg class="icon" width="200px" height="200.00px" viewBox="0 0 1024 1024" version="1.1" xmlns="http://www.w3.org/2000/svg"><path fill="#515151" d="M819.2 955.733H682.667c-75.401 0-136.533-61.133-136.533-136.533V682.667c0-75.401 61.133-136.533 136.533-136.533H819.2c75.401 0 136.533 61.133 136.533 136.533V819.2c0 75.401-61.133 136.533-136.533 136.533z m68.267-273.066c0-37.7-30.566-68.267-68.267-68.267H682.667c-37.7 0-68.267 30.566-68.267 68.267V819.2c0 37.7 30.566 68.267 68.267 68.267H819.2c37.7 0 68.267-30.566 68.267-68.267V682.667z m-68.267-204.8H682.667c-75.401 0-136.533-61.133-136.533-136.533V204.801c0-75.401 61.133-136.533 136.533-136.533H819.2c75.401 0 136.533 61.133 136.533 136.533v136.533c0 75.401-61.133 136.533-136.533 136.533zM887.467 204.8c0-37.7-30.566-68.267-68.267-68.267H682.667c-37.7 0-68.267 30.566-68.267 68.267v136.533c0 37.7 30.566 68.267 68.267 68.267H819.2c37.7 0 68.267-30.566 68.267-68.267V204.8zM341.333 955.733H204.8c-75.401 0-136.533-61.133-136.533-136.533V682.667c0-75.401 61.133-136.533 136.533-136.533h136.533c75.401 0 136.533 61.133 136.533 136.533V819.2c0 75.401-61.133 136.533-136.533 136.533zM409.6 682.667c0-37.7-30.566-68.267-68.267-68.267H204.8c-37.7 0-68.267 30.566-68.267 68.267V819.2c0 37.7 30.566 68.267 68.267 68.267h136.533c37.7 0 68.267-30.566 68.267-68.267V682.667z m-68.267-204.8H204.8c-75.401 0-136.533-61.133-136.533-136.533V204.801C68.267 129.4 129.4 68.268 204.8 68.268h136.533c75.401 0 136.533 61.133 136.533 136.533v136.533c0 75.401-61.133 136.533-136.533 136.533zM409.6 204.8c0-37.7-30.566-68.267-68.267-68.267H204.8c-37.7 0-68.267 30.566-68.267 68.267v136.533c0 37.7 30.566 68.267 68.267 68.267h136.533c37.7 0 68.267-30.566 68.267-68.267V204.8z" /></svg>