<?xml version="1.0" standalone="no"?><!DOCTYPE svg PUBLIC "-//W3C//DTD SVG 1.1//EN" "http://www.w3.org/Graphics/SVG/1.1/DTD/svg11.dtd"><svg class="icon" width="200px" height="200.00px" viewBox="0 0 1024 1024" version="1.1" xmlns="http://www.w3.org/2000/svg"><path fill="#515151" d="M992.552958 261.161908H781.512465a215.257287 215.257287 0 0 0 38.352744-21.284769 151.20218 151.20218 0 0 0 68.271901-124.897419 107.628644 107.628644 0 0 0-23.091966-69.677499A109.235041 109.235041 0 0 0 776.894072 10.363072a140.559796 140.559796 0 0 0-104.215049 45.581534 434.530569 434.530569 0 0 0-61.64551 88.753471c-29.718357 51.404725-55.42072 95.781461-99.195056 95.781461-43.774336 0-69.476699-44.376736-99.195056-95.781461a434.530569 434.530569 0 0 0-61.243911-88.753471A140.559796 140.559796 0 0 0 246.782842 10.363072 109.235041 109.235041 0 0 0 158.63177 45.302221a107.628644 107.628644 0 0 0-23.091967 69.677499 151.20218 151.20218 0 0 0 68.271901 124.897419 215.257287 215.257287 0 0 0 38.352744 21.284769H30.119956a20.079971 20.079971 0 0 0-20.079971 20.079971v188.149326a20.079971 20.079971 0 0 0 20.079971 20.079971h20.079971v501.999271a20.079971 20.079971 0 0 0 20.079971 20.079971h880.506721a20.079971 20.079971 0 0 0 20.079971-20.079971V492.282372h20.079971a20.079971 20.079971 0 0 0 20.079971-20.079971v-189.956524a20.079971 20.079971 0 0 0-18.473574-21.083969z m-606.214319 710.830968H93.773464V492.282372h191.763721a20.98357 20.98357 0 1 0 0-41.967139H52.007124v-147.186186h334.331515v668.863829z m-41.766339-731.714138a206.2213 206.2213 0 0 1-116.664631-34.738349 110.03824 110.03824 0 0 1-50.601527-90.560669c0-41.56554 23.292766-62.649509 69.2759-62.649509 63.854307 0 95.781461 55.01912 129.515812 113.251036a451.397744 451.397744 0 0 0 49.999127 74.697491z m250.798835 731.714138h-167.065357V303.129047h167.065357z m52.007125-806.411629c33.734351-58.231915 65.661505-113.251036 129.515812-113.251036 45.983133 0 69.275899 20.079971 69.275899 62.649509a110.03824 110.03824 0 0 1-50.601526 90.761468 206.2213 206.2213 0 0 1-116.664631 34.73835h-81.524682a451.397744 451.397744 0 0 0 49.999128-74.898291z m324.291529 283.729988H721.674152a20.98357 20.98357 0 0 0 0 41.967139h208.229297v480.714502H637.338274V303.129047h334.331515v146.182188z"  /><path fill="#515151" d="M950.786619 1024H72.890294a31.123955 31.123955 0 0 1-30.923155-30.923155V501.318359H30.119956A31.123955 31.123955 0 0 1 0 470.395204v-188.149327a31.123955 31.123955 0 0 1 30.119956-30.923155h171.482951l-4.417593-3.011995a160.639767 160.639767 0 0 1-71.685496-133.331007A117.467829 117.467829 0 0 1 150.599781 38.876631 118.672628 118.672628 0 0 1 246.782842 0.323087a150.398982 150.398982 0 0 1 111.443838 48.593529 441.759358 441.759358 0 0 1 63.251908 90.761468c27.911159 48.593529 52.207924 91.564667 90.560668 91.564667s62.24791-41.967139 90.560669-90.560668a441.759358 441.759358 0 0 1 63.251908-90.761468A150.198182 150.198182 0 0 1 776.894072 0.323087a118.672628 118.672628 0 0 1 96.584659 38.553544 117.467829 117.467829 0 0 1 25.501563 76.103089 160.639767 160.639767 0 0 1-72.488694 133.130207l-4.417594 3.011995h171.482951a31.123955 31.123955 0 0 1 30.923155 30.923156v188.149326a31.123955 31.123955 0 0 1-30.923155 30.923155h-11.646383v491.758486a31.123955 31.123955 0 0 1-31.123955 31.123955zM30.119956 271.402693a10.843184 10.843184 0 0 0-10.843184 10.843184v188.149327a10.843184 10.843184 0 0 0 10.843184 10.843184h31.726354v511.637657a10.843184 10.843184 0 0 0 10.843184 10.843184h878.097125a10.843184 10.843184 0 0 0 10.843184-10.843184V481.238388h30.923155a10.843184 10.843184 0 0 0 10.843185-10.843184v-188.149327a10.843184 10.843184 0 0 0-10.843185-10.843184H781.512465l-4.015994-20.079971a205.819701 205.819701 0 0 0 35.742348-20.079971 140.559796 140.559796 0 0 0 64.055107-116.66463 97.588658 97.588658 0 0 0-20.079971-63.251908 100.399854 100.399854 0 0 0-80.319883-31.324755 131.12221 131.12221 0 0 0-96.986259 42.569538 426.297781 426.297781 0 0 0-60.239913 86.745474c-30.119956 51.806325-58.432715 100.399854-107.829443 100.399855s-77.910287-48.995129-108.030243-100.399855a426.69938 426.69938 0 0 0-60.239913-86.745474A131.12221 131.12221 0 0 0 246.782842 20.403058a100.399854 100.399854 0 0 0-80.319884 31.324754 97.789458 97.789458 0 0 0-20.079971 63.251908 140.559796 140.559796 0 0 0 63.251909 116.263031 205.618901 205.618901 0 0 0 36.545546 20.079971l-4.015994 20.079971z m908.81948 710.830968H627.298289V293.089062h354.411485v166.262158h-261.039621a10.943584 10.943584 0 1 0 0 21.887168h219.273282z m-292.565175-20.079971h273.489203V501.318359h-198.189312a31.023555 31.023555 0 1 1 0-62.04711h240.95965v-126.102217h-315.255542z m-41.967139 20.079971h-186.141329V293.089062h187.145328z m-167.065357-20.079971h146.985386V313.169032h-145.981388z m-41.967139 20.079971H83.733478V481.238388h202.004507a10.943584 10.943584 0 0 0 0-21.887168H41.967139v-166.262158h354.411485z m-292.565175-20.079971h273.489202V313.169032H62.04711v126.102217h223.690875a31.023555 31.023555 0 0 1 0 62.04711H103.813449z m576.295163-710.830968h-104.215049l15.059978-16.666376a444.168955 444.168955 0 0 0 48.794329-73.091093c33.734351-58.231915 68.472701-118.271028 138.1502-118.271029 51.203926 0 80.319883 25.903162 80.319883 72.689495a120.479825 120.479825 0 0 1-54.81832 98.793456 216.662885 216.662885 0 0 1-123.291021 36.545547z m-60.239913-20.079971h60.239913a196.181315 196.181315 0 0 0 110.841439-32.931152 100.399854 100.399854 0 0 0 46.384732-82.52868c0-35.943148-18.875173-52.609524-60.239912-52.609524-58.231915 0-87.147073 50.199927-120.479825 108.231043a624.487093 624.487093 0 0 1-37.147946 59.838313z m-169.675753 20.079971h-104.616648a216.662885 216.662885 0 0 1-122.487823-36.545547 120.479825 120.479825 0 0 1-54.81832-99.797455c0-46.786332 28.111959-72.689494 80.319883-72.689494 69.677499 0 104.616648 60.239913 138.1502 118.271028a444.771354 444.771354 0 0 0 48.794329 73.091094zM246.782842 62.370197c-40.159942 0-60.239913 16.666376-60.239913 52.609523a100.399854 100.399854 0 0 0 46.384733 82.52868 196.181315 196.181315 0 0 0 111.644638 33.734351h60.239912a620.872698 620.872698 0 0 1-37.549545-60.239912c-33.332752-58.432715-62.448709-108.632642-120.479825-108.632642z"  /></svg>