<?xml version="1.0" standalone="no"?><!DOCTYPE svg PUBLIC "-//W3C//DTD SVG 1.1//EN" "http://www.w3.org/Graphics/SVG/1.1/DTD/svg11.dtd"><svg class="icon" width="200px" height="193.94px" viewBox="0 0 1056 1024" version="1.1" xmlns="http://www.w3.org/2000/svg"><path fill="#515151" d="M279.566 571.856l377.924 225.371 27.999-46.931-377.924-225.371zM651.228 233.654l-371.626 220.529 27.889 46.967 371.626-220.529z"  /><path fill="#515151" d="M192.658 609.503c-0.086 0-0.189 0-0.291 0-49.598 0-89.822-40.134-89.966-89.698 0-49.53 40.414-89.725 90.258-89.725 0.086 0 0.189 0 0.291 0 49.598 0 89.822 40.134 89.966 89.698-0.144 49.591-40.368 89.726-89.966 89.726-0.102 0-0.205 0-0.307 0l0.016 54.613c0.086 0 0.189 0 0.291 0 79.759 0 144.434-64.586 144.579-144.311-0.144-79.754-64.82-144.338-144.579-144.338-0.102 0-0.205 0-0.307 0-0.070 0-0.173 0-0.275 0-79.759 0-144.434 64.586-144.579 144.311 0.144 79.754 64.82 144.338 144.579 144.338 0.102 0 0.205 0 0.307 0l-0.016-54.613zM865.457 192.112c0 49.516-40.414 89.712-90.258 89.712-0.086 0-0.189 0-0.291 0-49.598 0-89.822-40.134-89.966-89.698 0-49.53 40.414-89.725 90.258-89.725 0.086 0 0.189 0 0.291 0 49.598 0 89.822 40.134 89.966 89.698l54.613 0.014c-0.144-79.74-64.82-144.325-144.579-144.325-0.102 0-0.205 0-0.307 0-0.070 0-0.173 0-0.275 0-79.759 0-144.434 64.586-144.579 144.311 0.144 79.754 64.82 144.338 144.579 144.338 0.102 0 0.205 0 0.307 0 0.070 0 0.173 0 0.275 0 79.759 0 144.434-64.586 144.579-144.311l-54.613-0.014zM865.457 847.472c0 49.516-40.414 89.712-90.258 89.712-0.086 0-0.189 0-0.291 0-49.598 0-89.822-40.134-89.966-89.698 0-49.53 40.414-89.725 90.258-89.725 0.086 0 0.189 0 0.291 0 49.598 0 89.822 40.134 89.966 89.698l54.613 0.014c-0.144-79.74-64.82-144.325-144.579-144.325-0.102 0-0.205 0-0.307 0-0.070 0-0.173 0-0.275 0-79.759 0-144.434 64.586-144.579 144.311 0.144 79.754 64.82 144.338 144.579 144.338 0.102 0 0.205 0 0.307 0 0.070 0 0.173 0 0.275 0 79.759 0 144.434-64.586 144.579-144.311l-54.613-0.014z"  /></svg>