<?xml version="1.0" standalone="no"?><!DOCTYPE svg PUBLIC "-//W3C//DTD SVG 1.1//EN" "http://www.w3.org/Graphics/SVG/1.1/DTD/svg11.dtd"><svg class="icon" width="200px" height="200.00px" viewBox="0 0 1024 1024" version="1.1" xmlns="http://www.w3.org/2000/svg"><path fill="#515151" d="M428.288 497.888l205.44 197.28000001c8.864 10.432 7.504 25.968-3.024 34.68799999-10.528 8.736-26.24 7.36-35.08799999-3.072l-205.42400001-197.28c-8.864-10.432-7.504-25.968 3.008-34.688S419.44 487.44 428.288 497.888z"  /><path fill="#515151" d="M633.744 328.32l-205.44 197.28c-8.864 10.432-24.56 11.808-35.088 3.088-10.528-8.736-11.872-24.272-3.024-34.688l205.44-197.28c8.848-10.432 24.56-11.808 35.088-3.072C641.248 302.33599999 642.608 317.872 633.744 328.32z"  /></svg>