<?xml version="1.0" standalone="no"?><!DOCTYPE svg PUBLIC "-//W3C//DTD SVG 1.1//EN" "http://www.w3.org/Graphics/SVG/1.1/DTD/svg11.dtd"><svg class="icon" width="200px" height="200.00px" viewBox="0 0 1024 1024" version="1.1" xmlns="http://www.w3.org/2000/svg"><path fill="#515151" d="M511.647531 220.148971q-85.508492 0-134.898919 52.999226c-31.286284 33.722224-47.325392 78.681847-47.325392 134.888894h64.15643c0-39.345936 8.831534-69.860338 25.692646-92.335137 20.048884-26.494601 49.78138-39.345936 89.127315-39.345936 33.722224 0 60.226849 8.831534 79.493827 28.068438q26.494601 26.494601 26.494601 74.672071c0 22.484824-8.019554 43.355713-23.286779 63.43467-5.623712 6.425667-14.455246 16.039108-27.296557 28.910491-43.355713 38.54398-70.662293 69.058382-81.097737 93.147117-10.435444 20.048884-15.257201 43.355713-15.257201 69.860338v18.465023h65.038581v-18.485072c0-21.682869 4.821757-41.751802 15.257201-59.414869 8.019554-14.455246 20.048884-28.910491 36.94007-43.355712 35.326134-31.316357 57.810958-52.197271 65.840536-61.83076 19.307076-26.454503 29.752544-57.77086 29.752545-93.908975 0-48.177469-15.257201-85.919494-44.959624-113.21605-30.524427-28.900467-72.326351-42.553757-123.671543-42.553757z m-11.2374 488.992291c-14.455246 0-25.692645 4.009777-34.524179 13.65329q-14.455246 13.252313-14.455246 33.722224c0 13.65329 4.821757 24.89069 14.455246 34.524179 8.831534 8.831534 20.048884 13.65329 34.524179 13.65329a50.673555 50.673555 0 0 0 34.514154-13.643266c8.831534-8.831534 13.65329-20.048884 13.653291-34.524179v-1.002444a45.851799 45.851799 0 0 0-13.653291-32.719779c-9.643513-9.643513-20.880913-13.65329-34.534203-13.653291z"  /><path fill="#515151" d="M500.410131 814.718687c-16.610501 0-30.604622-5.583614-41.61146-16.580427-11.538133-11.538133-17.392407-25.542279-17.392407-41.61146 0-16.35989 5.84425-30.073327 17.382383-40.819528 10.385322-11.157204 24.008539-16.580427 41.621484-16.580428h2.445964c15.718325 0.501222 28.559636 5.93447 39.17552 16.550354a55.585532 55.585532 0 0 1 16.590452 39.797036v1.112713c0 16.570403-5.603663 30.534451-16.590452 41.52124l-0.310758 0.300733a61.088951 61.088951 0 0 1-41.310726 16.309767z m-0.350856-95.552983c-12.029331 0.060147-20.249373 3.277993-26.785309 10.395347l-0.611491 0.621515c-7.538381 6.906841-11.207326 15.527861-11.207327 26.33421s3.658921 19.577736 11.518085 27.436898c7.207574 7.207574 16.189474 10.716129 27.436898 10.716129a40.518795 40.518795 0 0 0 27.587265-10.87652c7.10733-7.187525 10.565762-16.109279 10.565762-27.286532v-0.190464-0.822004a35.707063 35.707063 0 0 0-10.655982-25.562328c-7.448161-7.448161-15.918814-10.756226-27.487021-10.756226z m42.503635-56.207047h-85.09749v-28.529563c0-28.770149 5.30293-53.039324 16.229572-74.180872 10.796324-24.599981 37.270876-55.134432 83.283066-96.074254 12.75109-12.761115 21.362086-22.194115 26.404381-27.948145 14.154512-18.715634 21.051329-37.391169 21.051329-57.139321 0-29.211225-7.929334-51.956684-23.557439-67.584789-16.971381-16.90121-40.649113-25.121252-72.43662-25.121252-36.569165 0-63.153986 11.568206-81.137835 35.376256-15.678228 20.961109-23.697781 49.96182-23.697782 86.280374v10.024442h-84.205314v-10.024442c0-58.272083 16.841063-105.94833 50.05204-141.715539 34.754741-37.290925 82.601404-56.197023 142.246835-56.197023h2.385817c53.751059 0.441075 96.846136 15.648154 128.102347 45.240307 31.957922 29.391665 48.117323 69.950558 48.117323 120.543918 0 37.391169-10.635933 70.983075-31.627115 99.843444l-0.411003 0.521271c-8.019554 9.583367-28.619783 28.990687-66.893102 62.9134l-0.120294 0.110269c-15.36747 13.172117-27.065994 26.835432-34.694594 40.619039l-0.130318 0.230563c-9.202438 15.567959-13.863804 33.842517-13.863804 54.322452z m-65.038581-20.048885h44.989697v-8.480678c0-24.058661 5.583614-45.731505 16.580427-64.407041 8.791436-15.788496 21.893382-31.216113 39.035178-45.861823 23.056217-20.469911 54.793601-48.909254 64.527335-60.437362 18.304631-25.321741 27.597289-54.843723 27.597289-87.80409 0-44.789208-14.034219-80.396027-41.721728-105.838061l-0.110269-0.100244c-27.877974-26.414405-67.163763-39.80706-116.764703-39.80706h-0.72176c-53.510473 0.150367-96.234645 16.90121-126.839267 49.801429-27.75768 29.892887-42.704124 69.569629-44.498499 118.037807h44.197766c1.423471-36.188236 10.655982-65.860585 27.507069-88.32536 21.803162-28.780174 54.482843-43.355713 97.14687-43.355713 37.371121 0 65.700194 10.15476 86.581107 31.075771 19.527613 19.527613 29.431762 47.034683 29.431762 81.759351 0 24.339346-8.280189 47.114878-25.331765 69.499458l-0.441076 0.541319c-7.618576 8.701216-16.961356 18.59534-27.75768 29.391665l-0.431051 0.400978c-43.465981 38.644225-69.168651 67.965718-78.561554 89.638562l-0.300733 0.641564c-9.503171 18.274558-14.124439 39.616596-14.124439 65.229046z"  /><path fill="#515151" d="M511.868068 1013.974525C234.702266 1013.974525 10.024442 789.296702 10.024442 512.130899S234.702266 10.287273 511.868068 10.287273s501.843626 224.677823 501.843626 501.843626-224.677823 501.843626-501.843626 501.843626z m0-54.753503c246.912036 0 447.090123-200.188111 447.090123-447.090123s-200.178087-447.090123-447.090123-447.090123-447.090123 200.178087-447.090122 447.090123 200.178087 447.090123 447.090122 447.090123z"  /><path fill="#515151" d="M511.868068 1023.998967A511.998386 511.998386 0 0 1 312.622255 40.490917a512.008411 512.008411 0 0 1 398.491627 943.300013 508.69032 508.69032 0 0 1-199.245814 40.208037z m0-1003.687252a491.949502 491.949502 0 0 0-191.466846 944.994143 491.962533 491.962533 0 0 0 382.933693-906.349918 488.751705 488.751705 0 0 0-191.466847-38.644225z m0 948.933749a457.244883 457.244883 0 0 1-177.933849-878.311553 457.234858 457.234858 0 0 1 355.867699 842.383952 454.217501 454.217501 0 0 1-177.93385 35.927601z m0-894.180245a437.195998 437.195998 0 0 0-170.114784 839.797646 437.185974 437.185974 0 0 0 340.229569-805.463932 434.28891 434.28891 0 0 0-170.114785-34.333714z"  /></svg>