<?xml version="1.0" standalone="no"?><!DOCTYPE svg PUBLIC "-//W3C//DTD SVG 1.1//EN" "http://www.w3.org/Graphics/SVG/1.1/DTD/svg11.dtd"><svg class="icon" width="200px" height="200.00px" viewBox="0 0 1024 1024" version="1.1" xmlns="http://www.w3.org/2000/svg"><path fill="#515151" d="M511.868068 1013.974525C234.702266 1013.974525 10.024442 789.296702 10.024442 512.130899S234.702266 10.287273 511.868068 10.287273s501.843626 224.677823 501.843626 501.843626-224.677823 501.843626-501.843626 501.843626z m0-54.753503c246.912036 0 447.090123-200.188111 447.090123-447.090123s-200.178087-447.090123-447.090123-447.090123-447.090123 200.178087-447.090122 447.090123 200.178087 447.090123 447.090122 447.090123z"  /><path fill="#515151" d="M511.868068 1023.998967A511.998386 511.998386 0 0 1 312.622255 40.490917a512.008411 512.008411 0 0 1 398.491627 943.300013 508.69032 508.69032 0 0 1-199.245814 40.208037z m0-1003.687252a491.949502 491.949502 0 0 0-191.466846 944.994143 491.962533 491.962533 0 0 0 382.933693-906.349918 488.751705 488.751705 0 0 0-191.466847-38.644225z m0 948.933749a457.244883 457.244883 0 0 1-177.933849-878.311553 457.234858 457.234858 0 0 1 355.867699 842.383952 454.217501 454.217501 0 0 1-177.93385 35.927601z m0-894.180245a437.195998 437.195998 0 0 0-170.114784 839.797646 437.185974 437.185974 0 0 0 340.229569-805.463932 434.28891 434.28891 0 0 0-170.114785-34.333714z"  /><path fill="#515151" d="M475.369074 256.647965v401.478911a32.850097 32.850097 0 1 0 65.700194 0v-401.478911a32.850097 32.850097 0 1 0-65.700194 0z"  /><path fill="#515151" d="M508.219171 700.99139a42.924662 42.924662 0 0 1-42.874539-42.874539V256.647965a42.874539 42.874539 0 0 1 85.749079 0v401.478911a42.924662 42.924662 0 0 1-42.87454 42.864514z m0-467.139007a22.845704 22.845704 0 0 0-22.825655 22.825655v401.478911a22.825655 22.825655 0 1 0 45.65131 0V256.647965a22.845704 22.845704 0 0 0-22.825655-22.825655z"  /><path fill="#515151" d="M466.246832 776.776174a45.621237 45.621237 0 1 0 45.621236-45.661335 45.621237 45.621237 0 0 0-45.621236 45.661335z"  /><path fill="#515151" d="M511.868068 832.391779a55.645679 55.645679 0 1 1 55.645679-55.615605 55.705825 55.705825 0 0 1-55.645679 55.615605z m0-91.222424a35.596794 35.596794 0 1 0 35.596795 35.606819 35.636892 35.636892 0 0 0-35.596795-35.636892z"  /></svg>